<svg width="33" height="21" viewBox="0 0 33 21" fill="none" xmlns="http://www.w3.org/2000/svg">
<path d="M0 10.5L0.707107 11.2071L7.77817 18.2782L8.48528 17.5711L1.41421 10.5L8.48528 3.42894L7.77817 2.72183L0.707107 9.7929L0 10.5Z" fill="#FF6000"/>
<path d="M9.1924 2.72183L8.48529 3.42894L15.5564 10.5L8.48529 17.5711L9.1924 18.2782L16.2635 11.2071L23.3345 18.2782L24.0416 17.5711L16.9706 10.5L24.0416 3.42894L23.3345 2.72183L16.2635 9.7929L9.1924 2.72183Z" fill="#FF6000"/>
<path d="M24.7487 2.72183L24.0416 3.42894L31.1127 10.5L24.0416 17.5711L24.7487 18.2782L31.8198 11.2071L32.5269 10.5L31.8198 9.7929L24.7487 2.72183Z" fill="#FF6000"/>
</svg>
