<svg width="184" height="33" viewBox="0 0 149 27" fill="none" xmlns="http://www.w3.org/2000/svg">
<path fill-rule="evenodd" clip-rule="evenodd" d="M96.0801 14.2901V26.4524H91.4358V2H96.0801V10.533C98.6613 8.63736 102.28 8.15117 105.551 8.15117C109.67 8.15117 115.017 9.89461 115.017 14.7124V26.4524H110.372V15.3189C110.372 12.1169 106.84 11.4785 104.165 11.4785C101.217 11.4785 97.5783 12.4091 96.0801 14.2901ZM4.64632 13.573V26.4646H0.00179578V8.60296H4.64632V10.5036C6.77265 8.7994 8.81414 8.16346 10.8015 8.16346C13.0957 8.16346 15.6642 8.95414 17.0685 11.2845C19.5162 8.76997 22.2941 8.16346 24.2652 8.16346C27.6316 8.16346 31.7705 9.86515 31.7705 15.6455V26.4646H27.1262V15.6455C27.1262 12.7161 24.7562 11.7362 22.7959 11.7362C20.9313 11.7362 18.7779 13.2145 18.0378 14.2016C18.0956 14.6535 18.1263 15.1323 18.1263 15.6455V26.4646H13.4819V15.6455C13.4819 12.7161 11.2816 11.7362 9.33218 11.7362C7.76542 11.7362 5.48205 13.0573 4.64632 13.573ZM30.9492 2V4.96879H0V2H30.9492ZM133.264 16.5246L123.341 26.4573H117.527L131.937 12.031L129.553 12.8118L118.76 2.00492H124.574L133.264 10.7049L141.953 2.00492H147.767L134.589 15.1986L136.973 14.4177L149 26.4573H143.186L133.264 16.5246ZM39.3191 19.2158C40.0628 22.0594 42.8317 23.7415 47.4021 23.7415C50.7955 23.7415 53.1782 22.6758 54.5103 20.8071H59.947C58.3297 24.7139 53.9345 27 47.4616 27C39.3552 27 34.4347 23.3166 34.4347 17.4479C34.4347 11.5815 39.1441 8.09962 47.9743 8.09962C56.0807 8.09962 60.4687 10.1033 60.4687 13.6909C60.4687 18.8794 52.6836 19.2109 39.3191 19.2158ZM55.4074 13.465C55.4074 11.2501 51.0446 11.3581 48.1746 11.3581C43.2577 11.3581 40.135 13.0672 39.3246 15.9574C51.4183 15.95 55.4074 15.4122 55.4074 13.465ZM67.8747 20.8022C68.27 21.8851 69.3765 23.7046 75.7446 23.7046C82.2825 23.7046 83.2897 22.4228 83.2897 21.4038C83.2897 20.8464 82.889 19.486 79.9071 19.1962C78.3619 19.0465 76.1327 18.877 72.8747 18.7002C63.234 18.1723 62.9416 15.2821 62.9416 13.7891C62.9416 12.2961 63.0787 8.08978 75.362 8.08978C83.9864 8.08978 87.1976 11.1641 87.4467 13.8063H82.4359C82.2374 11.4956 77.1183 11.3385 75.3295 11.3385C73.5389 11.3385 67.8097 11.5374 67.8097 13.5853C67.8097 14.7075 69.3801 15.1372 72.992 15.3312C74.779 15.4245 78.2121 15.6676 79.9648 15.8199C85.2373 16.2741 88.3347 17.6861 88.3347 20.8562C88.3347 23.5328 87.2969 26.9214 75.6508 26.9583C66.0553 26.9877 63.5968 24.1417 62.66 20.8022H67.8747Z" fill="url(#paint0_linear_273_226)"/>
<defs>
<linearGradient id="paint0_linear_273_226" x1="45.5" y1="15.5" x2="151" y2="15.5" gradientUnits="userSpaceOnUse">
<stop stop-color="#E94600"/>
<stop offset="1" stop-color="#FF6000"/>
</linearGradient>
</defs>
</svg>
