<svg width="329" height="64" viewBox="0 0 329 64" fill="none" xmlns="http://www.w3.org/2000/svg">
<path d="M313.018 50.7551C312.907 51.089 312.414 51.3974 311.965 51.6789C311.587 51.9155 311.239 52.1331 311.173 52.3311C311.117 52.4976 311.333 52.8055 311.734 52.7477C313.464 52.3744 314.833 52.5904 315.74 52.9263C315.9 52.817 316.201 52.3181 316.406 51.7037C317.092 49.6557 315.875 47.3695 315.612 46.8745L315.612 46.8743C315.596 46.8452 315.584 46.8223 315.576 46.806C315.443 46.5471 315.448 46.2812 315.681 46L313.057 47.8102C312.946 47.8951 312.824 48.0162 312.775 48.1608C312.68 48.4449 312.784 48.843 312.896 49.2713C313.027 49.7693 313.168 50.3081 313.018 50.7551Z" fill="#EE4C29"/>
<path d="M318.192 47.249C317.83 47.249 317.376 46.8899 316.961 46.5619C316.612 46.2864 316.292 46.0328 316.077 46.0328C315.897 46.0328 315.662 46.3274 315.842 46.6789C316.743 48.1612 316.954 49.4914 316.905 50.4321C317.062 50.5461 317.644 50.6696 318.309 50.6696C320.528 50.6696 322.392 48.8399 322.796 48.4437C322.819 48.4203 322.838 48.4019 322.852 48.3892C323.065 48.1873 323.326 48.1089 323.674 48.2372L321.089 46.3749C320.972 46.2989 320.815 46.2229 320.659 46.2229C320.351 46.2229 319.993 46.4422 319.608 46.678C319.16 46.9523 318.676 47.249 318.192 47.249Z" fill="#EE4C29"/>
<path d="M315.416 57.8202C315.279 57.3183 315.129 56.7685 314.837 56.5622C314.445 56.2859 313.873 56.2496 313.345 56.2161C312.891 56.1873 312.468 56.1605 312.219 55.985C312.093 55.8956 312.012 55.7447 311.963 55.6162L311 52.6352C311.203 52.9372 311.463 53.0232 311.757 52.9813C311.776 52.9787 311.802 52.9745 311.836 52.9692C312.402 52.8789 315.018 52.4621 316.813 53.7279C317.352 54.1076 317.748 54.5394 317.805 54.721C317.196 55.4541 316.561 56.6508 316.392 58.3637C316.325 58.7511 315.957 58.8553 315.811 58.7524C315.637 58.63 315.531 58.242 315.416 57.8202Z" fill="#EE4C29"/>
<path d="M323.206 50.8887C323.094 50.5548 323.306 50.0245 323.499 49.5402C323.661 49.1334 323.81 48.7591 323.744 48.561C323.688 48.3945 323.327 48.2687 323.038 48.5438C321.864 49.8332 320.626 50.4392 319.689 50.6847C319.626 50.8645 319.685 51.4397 319.89 52.0542C320.576 54.1022 322.945 55.2575 323.458 55.5076C323.488 55.5224 323.512 55.534 323.529 55.5424C323.792 55.6766 323.95 55.8941 323.932 56.2545L324.958 53.2934C324.996 53.1615 325.022 52.9934 324.974 52.8488C324.879 52.5648 324.553 52.3021 324.203 52.0197C323.796 51.6911 323.355 51.3358 323.206 50.8887Z" fill="#EE4C29"/>
<path d="M322.557 56.4934C322.023 56.4647 321.438 56.4333 321.145 56.6397C320.753 56.916 320.541 57.4323 320.345 57.9097C320.176 58.3201 320.019 58.7017 319.77 58.8773C319.644 58.9666 319.471 58.9945 319.33 59L316.111 58.9678C316.47 58.8733 316.634 58.6605 316.684 58.3756C316.688 58.3577 316.692 58.3322 316.697 58.2997C316.783 57.7489 317.183 55.2051 318.978 53.9394C319.517 53.5596 320.062 53.3277 320.258 53.3306C320.788 54.1195 321.765 55.0752 323.391 55.7605C323.75 55.942 323.738 56.3144 323.592 56.4173C323.419 56.5397 323.006 56.5175 322.557 56.4934Z" fill="#EE4C29"/>
<path d="M58.2735 37.3013V7.41111H63.8856V11.4371C65.1666 9.68812 66.6616 8.42815 68.3696 7.65512C70.0776 6.88212 71.8256 6.49609 73.6156 6.49609C76.3196 6.49609 78.5566 7.04513 80.3256 8.14313C82.1147 9.22113 83.4466 10.6031 84.3207 12.2911C85.2157 13.9792 85.6627 15.7072 85.6627 17.4762V37.3013H80.0506V19.2152C80.0506 16.9581 79.3496 15.1481 77.9466 13.7861C76.5436 12.4031 74.6316 11.7121 72.2126 11.7121C70.6266 11.7121 69.2026 12.0671 67.9426 12.7792C66.7016 13.4702 65.7156 14.4572 64.9836 15.7382C64.2516 17.0192 63.8856 18.4932 63.8856 20.1602V37.3013H58.2735Z" fill="white" fill-opacity="0.9"/>
<path d="M107.87 38.2163C104.698 38.2163 101.902 37.5553 99.4818 36.2343C97.0628 34.9123 95.1718 33.0723 93.8088 30.7133C92.4467 28.3342 91.7657 25.5692 91.7657 22.4172C91.7657 20.1402 92.1518 18.0252 92.9248 16.0732C93.7178 14.1211 94.8158 12.4331 96.2188 11.0101C97.6418 9.58715 99.2988 8.47913 101.19 7.68614C103.102 6.89312 105.176 6.49609 107.412 6.49609C109.832 6.49609 111.987 6.9231 113.878 7.77709C115.79 8.63112 117.365 9.83112 118.606 11.3761C119.866 12.9011 120.771 14.7012 121.32 16.7751C121.869 18.8282 121.981 21.0652 121.656 23.4852H97.3168C97.2558 25.4772 97.6618 27.2262 98.5368 28.7312C99.4108 30.2152 100.672 31.3742 102.319 32.2082C103.986 33.0412 105.958 33.4583 108.236 33.4583C109.903 33.4583 111.53 33.1941 113.116 32.6652C114.702 32.1362 116.105 31.3542 117.325 30.3172L119.704 34.4952C118.728 35.2882 117.569 35.9693 116.227 36.5393C114.905 37.0883 113.522 37.5043 112.079 37.7893C110.635 38.0743 109.232 38.2163 107.87 38.2163ZM97.6218 19.1232H116.044C115.962 16.6022 115.18 14.6401 113.695 13.2371C112.211 11.8131 110.086 11.1021 107.321 11.1021C104.637 11.1021 102.42 11.8131 100.672 13.2371C98.9228 14.6401 97.9058 16.6022 97.6218 19.1232Z" fill="white" fill-opacity="0.9"/>
<path d="M141.988 38.2163C138.897 38.2163 136.142 37.4943 133.722 36.0513C131.303 34.6073 129.401 32.6852 128.019 30.2862C126.636 27.8872 125.945 25.2432 125.945 22.3562C125.945 20.2212 126.341 18.1982 127.134 16.2872C127.927 14.3752 129.046 12.6881 130.489 11.2241C131.933 9.73908 133.631 8.58011 135.583 7.7471C137.535 6.91311 139.67 6.49609 141.988 6.49609C145.099 6.49609 147.864 7.2181 150.284 8.66211C152.704 10.1051 154.604 12.0271 155.984 14.4261C157.374 16.8251 158.064 19.4692 158.064 22.3562C158.064 24.4912 157.664 26.5142 156.874 28.4262C156.074 30.3372 154.964 32.0253 153.514 33.4893C152.073 34.9533 150.375 36.1123 148.423 36.9663C146.471 37.7993 144.326 38.2163 141.988 38.2163ZM141.988 33.1532C144.001 33.1532 145.78 32.7163 147.325 31.8423C148.891 30.9473 150.121 29.6962 151.016 28.0902C151.91 26.4632 152.358 24.5522 152.358 22.3562C152.358 20.1402 151.91 18.2282 151.016 16.6221C150.141 14.9951 148.921 13.7452 147.356 12.8711C145.79 11.9961 144.001 11.5591 141.988 11.5591C139.975 11.5591 138.185 11.9961 136.62 12.8711C135.074 13.7452 133.854 14.9951 132.96 16.6221C132.085 18.2282 131.648 20.1402 131.648 22.3562C131.648 24.5522 132.085 26.4632 132.96 28.0902C133.854 29.6962 135.085 30.9473 136.65 31.8423C138.216 32.7163 139.995 33.1532 141.988 33.1532Z" fill="white" fill-opacity="0.9"/>
<path d="M174.174 38.1861C171.814 38.1861 169.574 37.84 167.464 37.1491C165.374 36.4371 163.624 35.4911 162.214 34.3121L164.534 30.0731C165.854 31.1711 167.364 32.0351 169.054 32.6651C170.754 33.2751 172.464 33.5801 174.174 33.5801C176.284 33.5801 177.934 33.204 179.114 32.4521C180.294 31.6791 180.884 30.5911 180.884 29.1881C180.884 27.8871 180.374 26.9211 179.354 26.2911C178.344 25.6601 176.454 25.0101 173.684 24.3391C170.024 23.5051 167.364 22.387 165.694 20.984C164.044 19.581 163.224 17.649 163.224 15.189C163.224 13.44 163.714 11.895 164.684 10.553C165.664 9.18999 166.994 8.12299 168.684 7.35C170.394 6.57697 172.354 6.19092 174.574 6.19092C176.764 6.19092 178.814 6.50577 180.704 7.13696C182.614 7.74694 184.264 8.64097 185.674 9.82098L183.504 14.091C182.794 13.42 181.954 12.84 180.974 12.3519C180.024 11.8639 178.994 11.488 177.894 11.224C176.794 10.939 175.694 10.797 174.604 10.797C172.794 10.797 171.304 11.1628 170.144 11.895C169.004 12.627 168.444 13.643 168.444 14.945C168.444 16.307 168.984 17.303 170.084 17.934C171.204 18.564 173.054 19.184 175.634 19.794C179.374 20.628 182.064 21.7461 183.694 23.1491C185.314 24.5321 186.134 26.4431 186.134 28.8831C186.134 30.7741 185.634 32.4211 184.634 33.8241C183.634 35.2071 182.244 36.2841 180.454 37.0571C178.664 37.8091 176.574 38.1861 174.174 38.1861Z" fill="white" fill-opacity="0.9"/>
<path d="M196.674 38.216C195.494 38.216 194.474 37.84 193.624 37.088C192.794 36.335 192.374 35.349 192.374 34.129C192.374 33.3161 192.554 32.604 192.924 31.9941C193.304 31.384 193.824 30.906 194.474 30.561C195.144 30.2148 195.884 30.042 196.674 30.042C197.874 30.042 198.894 30.4181 199.724 31.171C200.554 31.923 200.974 32.909 200.974 34.129C200.974 34.9421 200.784 35.654 200.394 36.264C200.004 36.874 199.494 37.352 198.834 37.698C198.184 38.0431 197.464 38.216 196.674 38.216Z" fill="white" fill-opacity="0.9"/>
<path d="M221.864 38.2163C218.714 38.2163 215.914 37.5253 213.474 36.1423C211.034 34.7593 209.124 32.8792 207.744 30.5002C206.354 28.1002 205.664 25.3862 205.664 22.3562C205.664 20.0582 206.074 17.9441 206.884 16.0122C207.724 14.0801 208.894 12.4031 210.394 10.9801C211.894 9.55612 213.654 8.45812 215.674 7.68614C217.704 6.89312 219.924 6.49609 222.324 6.49609C224.274 6.49609 226.074 6.75006 227.714 7.25909C229.364 7.7671 230.894 8.55013 232.294 9.60712L229.424 13.9381C228.514 13.1451 227.444 12.5551 226.224 12.1691C225.004 11.7621 223.714 11.5591 222.354 11.5591C220.114 11.5591 218.174 11.9861 216.524 12.8401C214.894 13.6741 213.634 14.8942 212.744 16.5002C211.844 18.1062 211.404 20.0382 211.404 22.2952C211.404 25.6912 212.374 28.3542 214.324 30.2862C216.304 32.1972 218.964 33.1532 222.324 33.1532C223.864 33.1532 225.304 32.8792 226.654 32.3303C227.994 31.7602 229.094 31.0283 229.944 30.1343L232.844 34.4042C231.274 35.5833 229.554 36.5182 227.684 37.2102C225.814 37.8813 223.874 38.2163 221.864 38.2163Z" fill="white" fill-opacity="0.9"/>
<path d="M251.544 38.2163C248.454 38.2163 245.694 37.4943 243.274 36.0513C240.854 34.6073 238.954 32.6852 237.574 30.2862C236.184 27.8872 235.494 25.2432 235.494 22.3562C235.494 20.2212 235.894 18.1982 236.684 16.2872C237.484 14.3752 238.594 12.6881 240.044 11.2241C241.484 9.73908 243.184 8.58011 245.134 7.7471C247.084 6.91311 249.224 6.49609 251.544 6.49609C254.654 6.49609 257.414 7.2181 259.834 8.66211C262.254 10.1051 264.154 12.0271 265.544 14.4261C266.924 16.8251 267.614 19.4692 267.614 22.3562C267.614 24.4912 267.214 26.5142 266.424 28.4262C265.634 30.3372 264.514 32.0253 263.064 33.4893C261.624 34.9533 259.924 36.1123 257.974 36.9663C256.024 37.7993 253.874 38.2163 251.544 38.2163ZM251.544 33.1532C253.554 33.1532 255.334 32.7163 256.874 31.8423C258.444 30.9473 259.674 29.6962 260.564 28.0902C261.464 26.4632 261.914 24.5522 261.914 22.3562C261.914 20.1402 261.464 18.2282 260.564 16.6221C259.694 14.9951 258.474 13.7452 256.904 12.8711C255.344 11.9961 253.554 11.5591 251.544 11.5591C249.524 11.5591 247.734 11.9961 246.174 12.8711C244.624 13.7452 243.404 14.9951 242.514 16.6221C241.634 18.2282 241.204 20.1402 241.204 22.3562C241.204 24.5522 241.634 26.4632 242.514 28.0902C243.404 29.6962 244.634 30.9473 246.204 31.8423C247.764 32.7163 249.544 33.1532 251.544 33.1532Z" fill="white" fill-opacity="0.9"/>
<path d="M274.055 37.301V7.41082H279.675V11.7419C280.865 9.78986 282.295 8.42786 283.945 7.65483C285.605 6.86184 287.375 6.46582 289.245 6.46582C289.835 6.46582 290.405 6.49603 290.955 6.55688C291.505 6.61773 292.045 6.69902 292.575 6.80106L291.745 12.6271C291.175 12.4642 290.595 12.3421 290.005 12.2612C289.415 12.1592 288.845 12.1082 288.275 12.1082C285.775 12.1082 283.705 12.8911 282.075 14.4572C280.475 16.0022 279.675 18.0762 279.675 20.6792V37.3013L274.055 37.301Z" fill="white" fill-opacity="0.9"/>
<path d="M310.725 38.2163C307.555 38.2163 304.755 37.5553 302.335 36.2343C299.915 34.9123 298.025 33.0723 296.665 30.7133C295.305 28.3342 294.625 25.5692 294.625 22.4172C294.625 20.1402 295.005 18.0252 295.785 16.0732C296.575 14.1211 297.675 12.4331 299.075 11.0101C300.495 9.58715 302.155 8.47913 304.045 7.68614C305.955 6.89312 308.035 6.49609 310.265 6.49609C312.685 6.49609 314.845 6.9231 316.735 7.77709C318.645 8.63112 320.225 9.83112 321.465 11.3761C322.725 12.9011 323.625 14.7012 324.175 16.7751C324.725 18.8282 324.835 21.0652 324.515 23.4852H300.175C300.115 25.4772 300.515 27.2262 301.395 28.7312C302.265 30.2152 303.525 31.3742 305.175 32.2082C306.845 33.0412 308.815 33.4583 311.095 33.4583C312.755 33.4583 314.385 33.1941 315.975 32.6652C317.555 32.1362 318.965 31.3542 320.185 30.3172L322.565 34.4952C321.585 35.2882 320.425 35.9693 319.085 36.5393C317.765 37.0883 316.375 37.5043 314.935 37.7893C313.495 38.0743 312.085 38.2163 310.725 38.2163ZM300.475 19.1232H318.905C318.815 16.6022 318.035 14.6401 316.555 13.2371C315.065 11.8131 312.945 11.1021 310.175 11.1021C307.495 11.1021 305.275 11.8131 303.525 13.2371C301.785 14.6401 300.765 16.6022 300.475 19.1232Z" fill="white" fill-opacity="0.9"/>
<path d="M16.7273 0C13.1543 0 9.85341 1.90589 8.0664 4.9999L1.34026 16.6502C-0.446752 19.7442 -0.446752 23.556 1.34026 26.65L8.0664 38.3012C9.85341 41.3952 13.1543 43.3011 16.7273 43.3011H30.1796C33.7526 43.3011 37.0535 41.3952 38.8405 38.3012L48.4535 21.6501L38.8405 4.9999C37.0535 1.90589 33.7526 0 30.1796 0H16.7273ZM16.1483 7.80102C19.6952 7.80101 22.5861 10.6919 22.5861 14.2389C22.5861 14.5899 22.5856 14.9406 22.5851 15.2915C21.2315 15.4997 19.9795 16.1342 19.0112 17.1028C18.0429 18.0714 17.4087 19.3235 17.2008 20.6772L16.1245 20.6762C12.5775 20.6519 9.71112 17.7856 9.71088 14.2389C9.71088 10.6919 12.6013 7.80102 16.1483 7.80102ZM30.9617 7.80102C34.5087 7.80102 37.3991 10.6919 37.3991 14.2389C37.3988 17.7856 34.5325 20.6519 30.9855 20.6762L29.924 20.6772C29.7164 19.3204 29.0805 18.0655 28.1092 17.0956C27.1379 16.1257 25.882 15.4917 24.5249 15.286C24.5243 14.9368 24.5238 14.5877 24.5238 14.2384C24.5241 10.6916 27.4149 7.80101 30.9617 7.80102ZM23.5604 17.1584C24.1504 17.1584 24.7345 17.2746 25.2795 17.5003C25.8246 17.7261 26.3198 18.057 26.7369 18.4741C27.154 18.8912 27.4849 19.3864 27.7107 19.9315C27.9364 20.4765 28.0526 21.0606 28.0526 21.6506C28.0526 22.2405 27.9364 22.8246 27.7107 23.3696C27.4849 23.9147 27.154 24.4099 26.7369 24.827C26.3198 25.2442 25.8246 25.5751 25.2795 25.8008C24.7345 26.0266 24.1504 26.1427 23.5604 26.1427C22.3691 26.1426 21.2266 25.6693 20.3843 24.8268C19.542 23.9844 19.0687 22.8419 19.0688 21.6506C19.0687 20.4592 19.542 19.3167 20.3843 18.4743C21.2266 17.6318 22.3691 17.1585 23.5604 17.1584ZM17.2009 22.6239C17.4088 23.9798 18.0445 25.2339 19.0152 26.2032C19.9858 27.1726 21.2408 27.8065 22.597 28.0126C22.5975 28.3627 22.598 28.7125 22.598 29.0627C22.598 32.6097 19.7072 35.5001 16.1602 35.5001C12.6132 35.5001 9.72232 32.6097 9.72232 29.0627C9.72256 25.516 12.5889 22.6492 16.1359 22.6249L17.2009 22.6239ZM29.9205 22.6239L30.9974 22.6249C34.5444 22.6492 37.4107 25.516 37.411 29.0627C37.411 32.6097 34.5201 35.5001 30.9731 35.5001C27.4261 35.5001 24.5358 32.6097 24.5358 29.0627H24.5352C24.5352 28.7117 24.5358 28.361 24.5363 28.0101C25.89 27.8019 27.142 27.1673 28.1103 26.1986C29.0786 25.2299 29.7127 23.9777 29.9205 22.6239Z" fill="#EE4C29"/>
<path d="M251.175 56.9999V47.0529H252.741L257.279 53.2879C257.337 53.3459 257.4 53.4281 257.468 53.5344C257.545 53.6407 257.617 53.7471 257.685 53.8534C257.753 53.9597 257.801 54.0467 257.83 54.1144H257.903C257.903 53.9694 257.903 53.8292 257.903 53.6939C257.903 53.5586 257.903 53.4232 257.903 53.2879V47.0529H259.469V56.9999H257.961L253.364 50.6924C253.287 50.5764 253.19 50.4314 253.074 50.2574C252.958 50.0737 252.871 49.9336 252.813 49.8369H252.741C252.741 49.9722 252.741 50.1124 252.741 50.2574C252.741 50.3927 252.741 50.5377 252.741 50.6924V56.9999H251.175Z" fill="white" fill-opacity="0.9"/>
<path d="M265.957 56.9999V47.0529H273.671V48.4449H267.581V51.2144H273.033V52.6064H267.581V55.6079H273.758V56.9999H265.957Z" fill="white" fill-opacity="0.9"/>
<path d="M284.37 57.1739C283.346 57.1739 282.456 56.9854 281.702 56.6084C280.958 56.2314 280.383 55.6611 279.977 54.8974C279.58 54.1337 279.382 53.1767 279.382 52.0264C279.382 50.8664 279.58 49.9094 279.977 49.1554C280.383 48.3917 280.958 47.8214 281.702 47.4444C282.456 47.0674 283.346 46.8789 284.37 46.8789C285.414 46.8789 286.308 47.0674 287.053 47.4444C287.797 47.8214 288.367 48.3917 288.764 49.1554C289.17 49.9094 289.373 50.8664 289.373 52.0264C289.373 53.1767 289.17 54.1337 288.764 54.8974C288.367 55.6611 287.797 56.2314 287.053 56.6084C286.308 56.9854 285.414 57.1739 284.37 57.1739ZM284.37 55.7964C284.902 55.7964 285.371 55.7239 285.777 55.5789C286.192 55.4339 286.54 55.2116 286.821 54.9119C287.111 54.6122 287.328 54.2352 287.473 53.7809C287.628 53.3266 287.705 52.7997 287.705 52.2004V51.8814C287.705 51.2627 287.628 50.7262 287.473 50.2719C287.328 49.8176 287.111 49.4406 286.821 49.1409C286.54 48.8412 286.192 48.6189 285.777 48.4739C285.371 48.3289 284.902 48.2564 284.37 48.2564C283.848 48.2564 283.379 48.3289 282.964 48.4739C282.558 48.6189 282.21 48.8412 281.92 49.1409C281.639 49.4406 281.427 49.8176 281.282 50.2719C281.137 50.7262 281.064 51.2627 281.064 51.8814V52.2004C281.064 52.7997 281.137 53.3266 281.282 53.7809C281.427 54.2352 281.639 54.6122 281.92 54.9119C282.21 55.2116 282.558 55.4339 282.964 55.5789C283.379 55.7239 283.848 55.7964 284.37 55.7964Z" fill="white" fill-opacity="0.9"/>
<path d="M295.379 56.9999V47.0529H297.917L299.845 53.0849C299.903 53.2589 299.961 53.4571 300.019 53.6794C300.077 53.9017 300.13 54.1144 300.179 54.3174C300.237 54.5204 300.28 54.6992 300.309 54.8539H300.425C300.445 54.7089 300.478 54.5349 300.527 54.3319C300.575 54.1289 300.623 53.9162 300.672 53.6939C300.73 53.4716 300.788 53.2637 300.846 53.0704L302.789 47.0529H305.283V56.9999H303.673V51.5479C303.673 51.1806 303.678 50.7987 303.688 50.4024C303.697 50.0061 303.707 49.6532 303.717 49.3439C303.726 49.0346 303.731 48.8364 303.731 48.7494H303.615C303.596 48.8557 303.548 49.0394 303.47 49.3004C303.403 49.5517 303.33 49.8224 303.253 50.1124C303.175 50.4024 303.103 50.6537 303.035 50.8664L301.02 56.9999H299.584L297.569 50.8809C297.511 50.6972 297.448 50.4797 297.38 50.2284C297.313 49.9771 297.245 49.7209 297.177 49.4599C297.11 49.1989 297.052 48.9621 297.003 48.7494H296.887C296.897 48.9814 296.902 49.2666 296.902 49.6049C296.911 49.9432 296.921 50.2864 296.931 50.6344C296.94 50.9727 296.945 51.2772 296.945 51.5479V56.9999H295.379Z" fill="white" fill-opacity="0.9"/>
</svg>
