<svg width="134" height="24" viewBox="0 0 134 24" fill="none" xmlns="http://www.w3.org/2000/svg">
<path fill-rule="evenodd" clip-rule="evenodd" d="M5.69061 8.33471V23.3269H0V3.76617C0.877593 2.66461 2.91933 1.87693 5.69061 1.36613V3.7053C8.85234 1.36852 13.2881 0.770582 17.2952 0.770582C22.3422 0.770582 28.8925 2.9188 28.8925 8.85625V23.3269H23.2007V9.60575C23.2007 5.6566 18.8736 4.86892 15.5961 4.86892C11.9842 4.86892 7.52699 6.01702 5.69061 8.33471ZM38.7741 14.4058C39.6875 17.9134 43.0809 19.9841 48.6784 19.9841C52.8359 19.9841 55.7564 18.6724 57.3886 16.3691H64.05C62.0679 21.1847 56.683 24 48.7524 24C38.8195 24 32.7921 19.4613 32.7921 12.229C32.7921 4.99661 38.5616 0.70495 49.3804 0.70495C59.3122 0.70495 64.6888 3.1754 64.6888 7.59597C64.6888 13.9929 55.1511 14.4022 38.7741 14.4058ZM58.4871 7.3179C58.4871 4.58846 53.1427 4.72094 49.6264 4.72094C43.6014 4.72094 39.7747 6.82739 38.7825 10.3899C53.6012 10.3827 58.4871 9.71913 58.4871 7.3179ZM108.647 16.3607C109.132 17.6974 110.488 19.9387 118.29 19.9387C126.301 19.9387 127.535 18.3598 127.535 17.103C127.535 16.4168 127.043 14.7412 123.391 14.3832C121.496 14.197 118.765 13.9893 114.775 13.7709C102.963 13.1217 102.604 9.55921 102.604 7.7189C102.604 5.87859 102.772 0.694214 117.821 0.694214C128.388 0.694214 132.322 4.48224 132.628 7.74037H126.489C126.246 4.89278 119.974 4.69706 117.781 4.69706C115.588 4.69706 108.568 4.94171 108.568 7.46826C108.568 8.85028 110.492 9.37899 114.918 9.61768C117.107 9.73583 121.312 10.0354 123.46 10.2216C129.922 10.7813 133.715 12.5202 133.715 16.4287C133.715 19.7275 132.445 23.9034 118.175 23.9487C106.418 23.9857 103.407 20.4793 102.259 16.3607H108.647ZM83.7117 24C74.8366 24 67.6308 20.5306 67.6308 12.3519C67.6308 4.17433 74.8366 0.70495 83.7117 0.70495C92.5879 0.70495 99.7937 4.17433 99.7937 12.3519C99.7937 20.5306 92.5879 24 83.7117 24ZM83.7117 20.0294C89.3927 20.0294 94.004 17.7427 94.004 12.3519C94.004 11.1298 93.7675 10.0676 93.3341 9.15462C92.7538 7.93013 90.4948 8.30249 89.3091 7.59477C88.3862 7.04459 88.6357 5.31766 87.4525 5.0551C86.2931 4.7985 85.031 4.67558 83.7117 4.67558C78.0318 4.67558 73.4205 6.96224 73.4205 12.3519C73.4205 13.6802 73.6999 14.8188 74.2062 15.7819C74.7542 16.8238 76.8927 16.3345 77.9052 16.9801C78.8198 17.5637 78.5715 19.3181 79.7607 19.6009C80.9774 19.891 82.3123 20.0294 83.7117 20.0294Z" fill="#FF6000"/>
</svg>
